<?xml version="1.0" encoding="utf-8"?>
<!-- Generator: Adobe Illustrator 22.0.0, SVG Export Plug-In . SVG Version: 6.00 Build 0)  -->
<svg version="1.1" id="Layer_1" xmlns="http://www.w3.org/2000/svg" xmlns:xlink="http://www.w3.org/1999/xlink" x="0px" y="0px"
	 viewBox="0 0 100.1 34.1" style="enable-background:new 0 0 100.1 34.1;" xml:space="preserve">
<style type="text/css">
	.st0{fill:#017CCA;}
</style>
<g>
	<path class="st0" d="M28.8,7.2L17.1,0.4c-1.1-0.6-2.4-0.6-3.5,0L1.8,7.2C0.7,7.9,0.1,9,0,10.3v13.6c0.1,1.2,0.7,2.4,1.8,3.1
		l11.8,6.8c1.1,0.6,2.4,0.6,3.5,0l11.8-6.8c1-0.7,1.7-1.8,1.8-3.1V10.3C30.5,9,29.9,7.9,28.8,7.2z M3.7,25.4v-1.6l1.6-0.1
		c0.2,0,0.4-0.2,0.5-0.4V10.8c0-0.2-0.2-0.4-0.5-0.4l-1.6-0.1V8.7h8v1.6L10,10.4c-0.2,0-0.4,0.2-0.5,0.4v4.9l5.3-3.1l4.6,2.6
		c-0.7,0.6-1.5,1-2.3,1.5c-0.4-0.3-0.8-0.5-1.1-0.7c-0.6-0.5-1.4-0.5-2.1-0.2c-1.6,0.7-3.1,1.7-4.4,2.7v4.8c0,0.2,0.2,0.4,0.5,0.4
		c0.2,0,1.7,0.1,1.7,0.1l0,1.6H3.7z M26.9,10.3l-1.6,0.1c-0.2,0-0.4,0.2-0.5,0.4v12.5c0,0.2,0.2,0.4,0.5,0.4l1.6,0.1v1.6h-8v-1.6
		c0,0,1.5-0.1,1.7-0.1c0.2,0,0.5-0.2,0.5-0.4v-4.9l-5.3,3.1l-4.6-2.6c0.7-0.6,1.5-1,2.3-1.5c0.4,0.3,0.8,0.5,1.1,0.7
		c0.6,0.5,1.4,0.5,2.1,0.2c1.6-0.7,3.1-1.7,4.4-2.7v-4.8c0-0.2-0.2-0.4-0.5-0.4l-1.7-0.1V8.7h8L26.9,10.3z"/>
	<g>
		<path class="st0" d="M38.3,24.8V9.4H42v6h5.1v-6h3.6v15.4h-3.6v-6.1H42v6.1H38.3z"/>
		<path class="st0" d="M53,24.8V9.4h3.6v15.4H53z"/>
		<path class="st0" d="M57.5,9.4h3.9l3.6,10.7l3.7-10.7h3.8c0,0-4.5,12.3-5,13.5c-0.3,1.1-1.4,1.9-2.5,1.9s-2.2-0.8-2.5-1.9
			C62.4,22.9,57.5,9.4,57.5,9.4z"/>
		<path class="st0" d="M73.3,21.5v-8.8c0-0.2,0-0.5,0.1-0.7c0.3-1.8,1.5-2.6,3.5-2.6h7.5v3.3h-6.6c-0.1,0-0.2,0-0.2,0.1
			c-0.4,0.1-0.6,0.5-0.6,0.9v1.7h7.4v3.3H77v1.7c0,0.7,0.3,1,0.9,1h6.5v3.3h-7C74.6,24.8,73.3,23.6,73.3,21.5z"/>
		<path class="st0" d="M85,24.8l5.5-7.9l-5.3-7.5h4.3l2.8,4.3l3-4.3h4.3l-5.3,7.5l5.5,7.9h-4.3L92.4,20l-3.1,4.7
			C89.4,24.8,85,24.8,85,24.8z"/>
	</g>
</g>
</svg>
